<svg width="73.019" height="64" viewBox="0 0 19.32 16.933" xmlns="http://www.w3.org/2000/svg"><path d="M28.778 64.61c-5.345 0-9.643 3.52-9.643 7.862 0 1.876.807 3.59 2.153 4.94-.472 1.905-2.051 3.602-2.07 3.62a.294.294 0 0 0-.057.331.29.29 0 0 0 .275.18c2.504 0 4.35-1.2 5.315-1.942 1.233.463 2.609.733 4.06.733 5.344 0 9.642-3.52 9.642-7.829 0-4.308-4.33-7.895-9.675-7.895zm-4.873 9.072c-.67 0-1.21-.539-1.21-1.176 0-.637.54-1.21 1.21-1.21.671 0 1.21.54 1.21 1.21 0 .671-.507 1.176-1.21 1.176zm4.873 0a1.17 1.17 0 0 1-1.176-1.176c0-.637.539-1.21 1.176-1.21.636 0 1.175.54 1.175 1.21 0 .671-.503 1.176-1.175 1.176zm4.804 0c-.671 0-1.21-.539-1.21-1.176 0-.637.539-1.21 1.21-1.21.67 0 1.21.54 1.21 1.21 0 .671-.507 1.176-1.21 1.176z" style="fill:#84cc16;fill-opacity:1;stroke-width:.0378002" transform="translate(-19.134 -64.61)"/></svg>